<svg id="Layer_1" enable-background="new 0 0 512 512" height="512" viewBox="0 0 512 512" width="512" xmlns="http://www.w3.org/2000/svg" xmlns:xlink="http://www.w3.org/1999/xlink"><linearGradient id="SVGID_1_" gradientUnits="userSpaceOnUse" x1="0" x2="512" y1="256" y2="256"><stop offset="0" stop-color="#00f2fe"/><stop offset=".0208" stop-color="#03effe"/><stop offset=".2931" stop-color="#24d2fe"/><stop offset=".5538" stop-color="#3cbdfe"/><stop offset=".7956" stop-color="#4ab0fe"/><stop offset="1" stop-color="#4facfe"/></linearGradient><path d="m237.102 366v-90.018h-90c-11.046 0-20-8.954-20-20s8.954-20 20-20h90v-90.982c0-11.046 8.954-20 20-20s20 8.954 20 20v90.982h90c11.046 0 20 8.954 20 20s-8.954 20-20 20h-90v90.018c0 11.046-8.954 20-20 20s-20-8.954-20-20zm254.898-15c11.046 0 20-8.954 20-20v-251c0-44.112-35.888-80-80-80h-352c-44.112 0-80 35.888-80 80v352c0 44.112 35.888 80 80 80h352c44.112 0 80-35.888 80-80 0-11.046-8.954-20-20-20s-20 8.954-20 20c0 22.056-17.944 40-40 40h-352c-22.056 0-40-17.944-40-40v-352c0-22.056 17.944-40 40-40h352c22.056 0 40 17.944 40 40v251c0 11.046 8.954 20 20 20z" fill="url(#SVGID_1_)"/></svg>